<svg width="22" height="22" viewBox="0 0 22 22" fill="none" xmlns="http://www.w3.org/2000/svg">
<path d="M15.3 7.64995C16.0455 7.64995 16.65 7.04554 16.65 6.29995C16.65 5.55437 16.0455 4.94995 15.3 4.94995C14.5544 4.94995 13.95 5.55437 13.95 6.29995C13.95 7.04554 14.5544 7.64995 15.3 7.64995Z" fill="white"/>
<path d="M14.4 2.69995C16.884 2.69995 18.9 4.71595 18.9 7.19995V14.4C18.9 16.884 16.884 18.9 14.4 18.9H7.19995C4.71595 18.9 2.69995 16.884 2.69995 14.4V7.19995C2.69995 4.71595 4.71595 2.69995 7.19995 2.69995H10.8H14.4Z" stroke="white" stroke-width="2" stroke-linecap="round" stroke-linejoin="round"/>
<path d="M10.8 7.19995C12.789 7.19995 14.4 8.81095 14.4 10.8C14.4 12.789 12.789 14.4 10.8 14.4C8.81095 14.4 7.19995 12.789 7.19995 10.8C7.19995 8.81095 8.81095 7.19995 10.8 7.19995Z" stroke="white" stroke-width="2" stroke-linecap="round" stroke-linejoin="round"/>
</svg>
