<svg width="100" height="100" viewBox="0 0 100 100" fill="none" xmlns="http://www.w3.org/2000/svg">
<g clip-path="url(#clip0_517_2544)">
<path d="M24.24 51.14V51.12C24.24 51.12 24.11 47.7 24.4 44.27C24.49 44.38 24.59 44.48 24.7 44.59L26.81 46.51C26.81 46.51 24.99 49.58 24.24 51.14Z" fill="#52310F"/>
<path d="M33.6401 26.12C33.4401 26.21 31.8001 26.81 31.0501 27.27C30.3101 27.73 29.9101 27.65 29.9101 27.65C29.2401 26.93 29.9101 23.74 29.9101 23.74C30.0801 22.45 30.6801 22.42 30.6801 22.42C32.3201 22.73 33.5601 24.69 33.9001 25.35C34.2401 26.01 33.8401 26.04 33.6401 26.12Z" fill="#52310F"/>
<path d="M35.84 35.44C35.84 36.61 35.1 37.56 34.19 37.56C33.28 37.56 32.55 36.61 32.55 35.44C32.55 34.27 33.29 33.32 34.19 33.32C35.09 33.32 35.84 34.27 35.84 35.44Z" fill="#52310F"/>
<path d="M40.9101 25.04C40.9101 25.04 40.3901 26.97 40.1101 27.83C39.8201 28.69 39.0501 29.46 38.7101 28.35C38.3601 27.24 38.9801 25.09 38.9801 25.09C38.9801 25.09 38.9868 25.0867 39.0001 25.08H39.0101C39.2501 24.98 39.9301 24.99 40.4001 25.01H40.5101C40.7401 25.03 40.9101 25.04 40.9101 25.04Z" fill="#52310F"/>
<path d="M43.86 41.33C43.45 41.99 42.23 42.68 41.11 42.39C39.99 42.1 39.32 41.2 39.32 41.2C38.18 42.43 36.73 42.32 35.95 41.73C35.18 41.14 34.93 40.51 35.22 40.07C35.51 39.63 36.11 40.05 36.11 40.05C36.92 41.32 37.56 40.94 37.56 40.94C38.42 41.1 38.87 39.61 38.97 39.23C38.23 39.06 37.7 38.58 37.7 38.01C37.7 37.3 38.55 36.72 39.6 36.72C40.65 36.72 41.5 37.3 41.5 38.01C41.5 38.61 40.92 39.11 40.12 39.25V39.31C40.09 40.05 40.6 40.85 41.2 41.15C41.8 41.46 42.55 40.87 42.69 40.69C42.84 40.52 43.31 40.12 43.67 40.16C44.03 40.21 44.26 40.66 43.86 41.33Z" fill="#52310F"/>
<path d="M44.5899 24.99C44.5899 24.99 44.5899 25.01 44.5799 25.07C44.5599 25.2 44.5299 25.52 44.4699 26.24C44.3999 27.25 43.9599 29.02 43.0999 28.9C42.2299 28.78 42.5999 27.24 42.5999 26.78C42.5999 26.32 42.8699 25.13 42.8999 25L44.5899 24.99Z" fill="#52310F"/>
<path d="M48.1699 35.93C48.1699 37.1 47.4299 38.05 46.5199 38.05C45.6099 38.05 44.8799 37.1 44.8799 35.93C44.8799 34.76 45.6099 33.81 46.5199 33.81C47.4299 33.81 48.1699 34.76 48.1699 35.93Z" fill="#52310F"/>
<path d="M54.6701 28.28C54.6701 28.28 54.2601 28.33 53.5501 27.82C52.8401 27.31 51.2401 26.59 51.0501 26.49C50.8601 26.39 50.4601 26.33 50.8501 25.7C51.2401 25.06 52.6101 23.2 54.2701 23C54.2701 23 54.8701 23.08 54.9501 24.38C54.9501 24.38 55.3801 27.61 54.6701 28.28Z" fill="#52310F"/>
<path d="M64.65 32.16C65.22 34.11 64.7099 48.77 64.7099 48.77C64.7099 48.77 64.71 53.08 64.3 55.55C63.9 58.01 63.5 62.01 57.58 61.47C59.48 61.15 61.9499 59.84 62.6899 52.85C63.6699 43.65 62.9799 32.56 62.18 31.12C61.3699 29.69 63.15 27.65 63.15 27.65C65.16 23.38 62.41 20.49 62.41 20.49C59.2999 17.68 54.59 14.4 42.9199 14.51C31.2599 14.63 26.59 18.71 26.59 18.71C21.41 23.88 25.8799 27.65 25.8799 27.65C25.7299 29.01 25.78 29.3 25.78 29.3C25.78 29.3 25.44 29.74 24.95 30.45C24.88 29.49 24.8199 28.88 24.8199 28.88C24.8199 28.88 20.3399 24.52 23.2099 19.92C26.0799 15.32 30.68 13.94 38.15 12.56C45.62 11.18 57.75 11.93 62.81 16.3C67.87 20.66 68.0999 24.57 64.4199 29.69C64.4199 29.69 64.07 30.2 64.65 32.16Z" fill="#52310F"/>
<path d="M70.22 32.56C70.97 34.46 70.97 43.65 70.97 44.29C70.97 44.29 70.92 53.77 68.9 56.58C66.95 59.31 65.11 59.99 65 60.02C65 60.02 65.03 59.97 65.07 59.88C65.09 59.84 65.11 59.77 65.14 59.72C65.16 59.66 65.19 59.59 65.22 59.52C65.24 59.48 65.25 59.43 65.27 59.37C65.29 59.32 65.3 59.27 65.32 59.22C65.43 58.86 65.55 58.35 65.69 57.66C65.71 57.56 65.73 57.45 65.75 57.34C65.77 57.23 65.79 57.11 65.81 56.99C65.85 56.77 65.89 56.52 65.93 56.26C65.95 56.11 65.97 55.96 65.99 55.8C66.03 55.51 66.07 55.19 66.11 54.86C66.11 54.84 66.11 54.82 66.12 54.8C66.15 54.49 66.19 54.15 66.22 53.8C66.22 53.71 66.24 53.62 66.25 53.52C66.26 53.42 66.27 53.32 66.27 53.22C66.28 53.16 66.28 53.1 66.29 53.03C66.29 52.92 66.31 52.8 66.32 52.69C66.33 52.52 66.35 52.36 66.36 52.18C66.38 51.89 66.4 51.59 66.42 51.28C66.43 51.05 66.45 50.81 66.46 50.57C66.48 50.35 66.49 50.13 66.5 49.9V49.81C66.51 49.58 66.52 49.34 66.54 49.1V49.01C66.54 48.73 66.56 48.45 66.57 48.16C66.58 47.89 66.59 47.61 66.6 47.32C66.6 46.88 66.63 46.42 66.64 45.94C66.64 45.7 66.65 45.46 66.65 45.21C66.65 44.96 66.66 44.72 66.66 44.46C66.66 44.08 66.66 43.72 66.66 43.36C66.67 43 66.67 42.65 66.67 42.31C66.68 41.66 66.68 41.01 66.68 40.39C66.68 39.69 66.67 39.04 66.67 38.43C66.67 38.2 66.66 37.97 66.66 37.75C66.66 37.53 66.66 37.32 66.66 37.11C66.66 36.86 66.65 36.63 66.65 36.4C66.64 36.04 66.63 35.7 66.62 35.38C66.61 34.96 66.59 34.58 66.58 34.23C66.57 34.09 66.57 33.96 66.56 33.83C66.54 33.38 66.51 32.98 66.49 32.63C66.45 32.28 66.43 31.98 66.41 31.72C66.4 31.61 66.39 31.5 66.38 31.41C66.26 30.3 66.14 30.15 66.14 30.15C66.14 30.15 66.55 29.95 67.15 29.03C67.19 28.96 67.23 28.9 67.27 28.83C67.31 28.77 67.34 28.72 67.37 28.66C67.45 28.53 67.52 28.4 67.59 28.25C67.64 28.16 67.69 28.08 67.72 27.99C67.79 27.87 67.85 27.73 67.91 27.59C68.06 27.26 68.22 26.88 68.36 26.47C68.45 26.25 68.53 26.02 68.61 25.78C69.01 24.59 69.07 23.19 68.78 21.74C68.76 21.6 68.72 21.46 68.68 21.31C68.64 21.11 68.58 20.91 68.52 20.7C68.35 20.17 68.14 19.64 67.88 19.11C67.79 18.94 67.7 18.76 67.6 18.59C67.57 18.53 67.54 18.47 67.49 18.42C67.39 18.25 67.29 18.08 67.17 17.92C65.99 16.11 64.19 14.51 61.74 13.51C61.74 13.51 65.32 13.88 69.49 17.5C73.67 21.12 72.85 25.36 69.49 28.91C69.49 29 69.5 30.71 70.22 32.56Z" fill="#52310F"/>
<path d="M69.3201 59.38C69.3201 59.38 71.3701 58.04 71.7201 53.63C71.7201 53.63 73.0201 53.1 74.2501 49.42C74.2501 49.42 74.4001 47.2 75.4301 46.2C76.4701 45.21 79.0301 44.48 79.6101 47.77C80.1801 51.07 76.8501 57.58 69.3201 59.38Z" fill="#52310F"/>
<path d="M22.3701 50.79C22.3501 50.32 22.3501 49.8 22.3601 49.19C22.3601 49.78 22.3601 50.31 22.3701 50.79Z" fill="#52310F"/>
<path d="M22.4999 52.66C22.4499 52.36 22.4199 52.02 22.3999 51.61C22.4299 51.99 22.4599 52.34 22.4999 52.66Z" fill="#52310F"/>
<path d="M24.24 51.14V51.12C24.24 51.12 24.11 47.7 24.4 44.27C24.49 44.38 24.59 44.48 24.7 44.59L26.81 46.51C26.81 46.51 24.99 49.58 24.24 51.14Z" fill="#52310F"/>
<path d="M33.6401 26.12C33.4401 26.21 31.8001 26.81 31.0501 27.27C30.3101 27.73 29.9101 27.65 29.9101 27.65C29.2401 26.93 29.9101 23.74 29.9101 23.74C30.0801 22.45 30.6801 22.42 30.6801 22.42C32.3201 22.73 33.5601 24.69 33.9001 25.35C34.2401 26.01 33.8401 26.04 33.6401 26.12Z" fill="#52310F"/>
<path d="M35.84 35.44C35.84 36.61 35.1 37.56 34.19 37.56C33.28 37.56 32.55 36.61 32.55 35.44C32.55 34.27 33.29 33.32 34.19 33.32C35.09 33.32 35.84 34.27 35.84 35.44Z" fill="#52310F"/>
<path d="M40.9101 25.04C40.9101 25.04 40.3901 26.97 40.1101 27.83C39.8201 28.69 39.0501 29.46 38.7101 28.35C38.3601 27.24 38.9801 25.09 38.9801 25.09C38.9801 25.09 38.9868 25.0867 39.0001 25.08H39.0101C39.2501 24.98 39.9301 24.99 40.4001 25.01H40.5101C40.7401 25.03 40.9101 25.04 40.9101 25.04Z" fill="#52310F"/>
<path d="M43.86 41.33C43.45 41.99 42.23 42.68 41.11 42.39C39.99 42.1 39.32 41.2 39.32 41.2C38.18 42.43 36.73 42.32 35.95 41.73C35.18 41.14 34.93 40.51 35.22 40.07C35.51 39.63 36.11 40.05 36.11 40.05C36.92 41.32 37.56 40.94 37.56 40.94C38.42 41.1 38.87 39.61 38.97 39.23C38.23 39.06 37.7 38.58 37.7 38.01C37.7 37.3 38.55 36.72 39.6 36.72C40.65 36.72 41.5 37.3 41.5 38.01C41.5 38.61 40.92 39.11 40.12 39.25V39.31C40.09 40.05 40.6 40.85 41.2 41.15C41.8 41.46 42.55 40.87 42.69 40.69C42.84 40.52 43.31 40.12 43.67 40.16C44.03 40.21 44.26 40.66 43.86 41.33Z" fill="#52310F"/>
<path d="M44.5899 24.99C44.5899 24.99 44.5899 25.01 44.5799 25.07C44.5599 25.2 44.5299 25.52 44.4699 26.24C44.3999 27.25 43.9599 29.02 43.0999 28.9C42.2299 28.78 42.5999 27.24 42.5999 26.78C42.5999 26.32 42.8699 25.13 42.8999 25L44.5899 24.99Z" fill="#52310F"/>
<path d="M48.1699 35.93C48.1699 37.1 47.4299 38.05 46.5199 38.05C45.6099 38.05 44.8799 37.1 44.8799 35.93C44.8799 34.76 45.6099 33.81 46.5199 33.81C47.4299 33.81 48.1699 34.76 48.1699 35.93Z" fill="#52310F"/>
<path d="M54.6701 28.28C54.6701 28.28 54.2601 28.33 53.5501 27.82C52.8401 27.31 51.2401 26.59 51.0501 26.49C50.8601 26.39 50.4601 26.33 50.8501 25.7C51.2401 25.06 52.6101 23.2 54.2701 23C54.2701 23 54.8701 23.08 54.9501 24.38C54.9501 24.38 55.3801 27.61 54.6701 28.28Z" fill="#52310F"/>
<path d="M64.65 32.16C65.22 34.11 64.7099 48.77 64.7099 48.77C64.7099 48.77 64.71 53.08 64.3 55.55C63.9 58.01 63.5 62.01 57.58 61.47C59.48 61.15 61.9499 59.84 62.6899 52.85C63.6699 43.65 62.9799 32.56 62.18 31.12C61.3699 29.69 63.15 27.65 63.15 27.65C65.16 23.38 62.41 20.49 62.41 20.49C59.2999 17.68 54.59 14.4 42.9199 14.51C31.2599 14.63 26.59 18.71 26.59 18.71C21.41 23.88 25.8799 27.65 25.8799 27.65C25.7299 29.01 25.78 29.3 25.78 29.3C25.78 29.3 25.44 29.74 24.95 30.45C24.88 29.49 24.8199 28.88 24.8199 28.88C24.8199 28.88 20.3399 24.52 23.2099 19.92C26.0799 15.32 30.68 13.94 38.15 12.56C45.62 11.18 57.75 11.93 62.81 16.3C67.87 20.66 68.0999 24.57 64.4199 29.69C64.4199 29.69 64.07 30.2 64.65 32.16Z" fill="#52310F"/>
<path d="M66.1101 54.86C65.9301 56.71 65.6701 58.24 65.3201 59.22C65.4301 58.86 65.5501 58.35 65.6901 57.66C65.7101 57.56 65.7301 57.45 65.7501 57.34C65.7701 57.23 65.7901 57.11 65.8101 56.99C65.8501 56.77 65.8901 56.52 65.9301 56.26C65.9501 56.11 65.9701 55.96 65.9901 55.8C66.0301 55.51 66.0701 55.19 66.1101 54.86Z" fill="#52310F"/>
<path d="M67.1499 29.03C66.9399 29.4 66.6999 29.77 66.4299 30.15C66.4299 30.15 66.2699 29.71 66.3799 31.41C66.2599 30.3 66.1399 30.15 66.1399 30.15C66.1399 30.15 66.5499 29.95 67.1499 29.03Z" fill="#52310F"/>
<path d="M68.5199 20.7C68.3499 20.17 68.1399 19.64 67.8799 19.11C68.1299 19.58 68.3499 20.11 68.5199 20.7Z" fill="#52310F"/>
<path d="M24.24 51.14V51.12C24.24 51.12 24.11 47.7 24.4 44.27C24.49 44.38 24.59 44.48 24.7 44.59L26.81 46.51C26.81 46.51 24.99 49.58 24.24 51.14Z" fill="#B87C1B"/>
<path d="M33.6401 26.12C33.4401 26.21 31.8001 26.81 31.0501 27.27C30.3101 27.73 29.9101 27.65 29.9101 27.65C29.2401 26.93 29.9101 23.74 29.9101 23.74C30.0801 22.45 30.6801 22.42 30.6801 22.42C32.3201 22.73 33.5601 24.69 33.9001 25.35C34.2401 26.01 33.8401 26.04 33.6401 26.12Z" fill="#B87C1B"/>
<path d="M35.84 35.44C35.84 36.61 35.1 37.56 34.19 37.56C33.28 37.56 32.55 36.61 32.55 35.44C32.55 34.27 33.29 33.32 34.19 33.32C35.09 33.32 35.84 34.27 35.84 35.44Z" fill="#B87C1B"/>
<path d="M40.9101 25.04C40.9101 25.04 40.3901 26.97 40.1101 27.83C39.8201 28.69 39.0501 29.46 38.7101 28.35C38.3601 27.24 38.9801 25.09 38.9801 25.09C38.9801 25.09 38.9868 25.0867 39.0001 25.08H39.0101C39.2501 24.98 39.9301 24.99 40.4001 25.01H40.5101C40.7401 25.03 40.9101 25.04 40.9101 25.04Z" fill="#B87C1B"/>
<path d="M43.86 41.33C43.45 41.99 42.23 42.68 41.11 42.39C39.99 42.1 39.32 41.2 39.32 41.2C38.18 42.43 36.73 42.32 35.95 41.73C35.18 41.14 34.93 40.51 35.22 40.07C35.51 39.63 36.11 40.05 36.11 40.05C36.92 41.32 37.56 40.94 37.56 40.94C38.42 41.1 38.87 39.61 38.97 39.23C38.23 39.06 37.7 38.58 37.7 38.01C37.7 37.3 38.55 36.72 39.6 36.72C40.65 36.72 41.5 37.3 41.5 38.01C41.5 38.61 40.92 39.11 40.12 39.25V39.31C40.09 40.05 40.6 40.85 41.2 41.15C41.8 41.46 42.55 40.87 42.69 40.69C42.84 40.52 43.31 40.12 43.67 40.16C44.03 40.21 44.26 40.66 43.86 41.33Z" fill="#B87C1B"/>
<path d="M44.5899 24.99C44.5899 24.99 44.5899 25.01 44.5799 25.07C44.5599 25.2 44.5299 25.52 44.4699 26.24C44.3999 27.25 43.9599 29.02 43.0999 28.9C42.2299 28.78 42.5999 27.24 42.5999 26.78C42.5999 26.32 42.8699 25.13 42.8999 25L44.5899 24.99Z" fill="#B87C1B"/>
<path d="M48.1699 35.93C48.1699 37.1 47.4299 38.05 46.5199 38.05C45.6099 38.05 44.8799 37.1 44.8799 35.93C44.8799 34.76 45.6099 33.81 46.5199 33.81C47.4299 33.81 48.1699 34.76 48.1699 35.93Z" fill="#B87C1B"/>
<path d="M54.6701 28.28C54.6701 28.28 54.2601 28.33 53.5501 27.82C52.8401 27.31 51.2401 26.59 51.0501 26.49C50.8601 26.39 50.4601 26.33 50.8501 25.7C51.2401 25.06 52.6101 23.2 54.2701 23C54.2701 23 54.8701 23.08 54.9501 24.38C54.9501 24.38 55.3801 27.61 54.6701 28.28Z" fill="#B87C1B"/>
<path d="M64.65 32.16C65.22 34.11 64.7099 48.77 64.7099 48.77C64.7099 48.77 64.71 53.08 64.3 55.55C63.9 58.01 63.5 62.01 57.58 61.47C59.48 61.15 61.9499 59.84 62.6899 52.85C63.6699 43.65 62.9799 32.56 62.18 31.12C61.3699 29.69 63.15 27.65 63.15 27.65C65.16 23.38 62.41 20.49 62.41 20.49C59.2999 17.68 54.59 14.4 42.9199 14.51C31.2599 14.63 26.59 18.71 26.59 18.71C21.41 23.88 25.8799 27.65 25.8799 27.65C25.7299 29.01 25.78 29.3 25.78 29.3C25.78 29.3 25.44 29.74 24.95 30.45C24.88 29.49 24.8199 28.88 24.8199 28.88C24.8199 28.88 20.3399 24.52 23.2099 19.92C26.0799 15.32 30.68 13.94 38.15 12.56C45.62 11.18 57.75 11.93 62.81 16.3C67.87 20.66 68.0999 24.57 64.4199 29.69C64.4199 29.69 64.07 30.2 64.65 32.16Z" fill="#B87C1B"/>
<path d="M63.1499 27.65C65.1599 23.38 62.4099 20.49 62.4099 20.49C59.2999 17.68 54.5899 14.4 42.9199 14.51C31.2599 14.63 26.5899 18.71 26.5899 18.71C21.4099 23.88 25.8799 27.65 25.8799 27.65C25.9699 26.8 26.1299 25.52 26.4299 23.63C27.1899 18.73 29.4599 18.46 29.4599 18.46C33.9399 18.27 37.8499 23.48 37.8499 23.48C41.2899 22.52 47.0399 23.48 47.0399 23.48C54.5499 16.58 56.8499 19.42 56.8499 19.42C59.6899 22.68 58.7699 30.19 58.7699 30.19C60.5199 32.17 61.6399 36.66 61.6399 36.66C62.3699 43.29 58.7699 45.24 58.4199 45.66C58.0799 46.09 56.4699 47.2 55.3199 47.43C54.1699 47.66 54.2499 46.28 55.2399 46.01C56.2399 45.74 57.8799 43.86 57.8799 43.86C57.2299 43.25 54.3199 42.47 54.3199 42.47C52.4099 41.43 54.0499 40.8 54.0499 40.8C56.8899 40.95 58.1899 42.83 58.8799 42.47C59.5699 42.12 59.9199 38.92 59.9199 38.92C58.6099 38.46 54.3199 39.23 54.3199 39.23C52.9799 38.84 53.3299 38.31 54.0199 37.77C54.6999 37.24 59.9199 37.29 59.9199 37.29C59.4199 33.62 56.6999 30.34 56.6999 30.34C56.6999 30.34 57.4599 28 56.6999 23.94C55.9299 19.88 55.0199 20.65 55.0199 20.65C52.8399 20.68 47.4299 25.47 47.4299 25.47C46.5999 25.26 45.6099 25.14 44.5799 25.07C44.5599 25.2 44.5299 25.52 44.4699 26.24C44.3999 27.25 43.9599 29.02 43.0999 28.9C42.2299 28.78 42.5999 27.24 42.5999 26.78C42.5999 26.32 42.8699 25.13 42.8999 25C42.0699 24.98 41.2599 24.99 40.5099 25.01C40.7399 25.03 40.9099 25.04 40.9099 25.04C40.9099 25.04 40.3899 26.97 40.1099 27.83C39.8199 28.69 39.0499 29.46 38.7099 28.35C38.3599 27.24 38.9799 25.09 38.9799 25.09C38.9799 25.09 38.9866 25.0867 38.9999 25.08C37.7399 25.15 36.8899 25.24 36.8899 25.24C32.7899 20.22 29.9199 20.38 29.9199 20.38C27.4999 22.02 27.6499 30.03 27.6499 30.03C26.6999 31.07 25.8099 32.33 25.1399 33.69C24.7999 34.37 24.5199 35.07 24.3099 35.77C24.4899 35.83 24.5899 35.86 24.5899 35.86C24.5899 35.86 24.8599 35.97 25.1799 36.11C25.6099 36.3 26.1499 36.54 26.2399 36.64C26.3899 36.81 26.8299 37.08 26.4299 37.71C26.1099 38.22 25.5099 38.06 25.1499 37.86C25.0499 37.81 24.9699 37.75 24.9199 37.71C24.8099 37.62 24.4299 37.54 23.9599 37.46C23.8799 38.11 23.8799 38.74 23.9699 39.36C24.0899 39.35 24.1599 39.35 24.1599 39.35C24.1599 39.35 24.5999 39.35 25.0499 39.37C25.4699 39.38 25.8899 39.41 25.9899 39.46C26.1899 39.56 26.6999 39.65 26.5699 40.38C26.4299 41.12 25.4899 41.04 25.1599 40.95C25.0999 40.93 24.9899 40.94 24.8399 40.95C24.7299 40.96 24.5999 40.98 24.4499 41.01C24.4499 41.03 24.4599 41.04 24.4699 41.06C24.5499 41.23 24.6399 41.4 24.7299 41.56C26.4599 44.7 29.6499 46.19 29.6499 46.19C30.0299 47.95 28.3099 47.49 28.3099 47.49C25.2499 52.22 25.2699 55.57 26.0399 57.79C26.3099 58.57 26.6699 59.21 27.0299 59.72C27.4599 60.32 27.9199 60.74 28.3699 61.03C29.3699 61.69 30.2499 61.71 30.2499 61.71C30.2299 61.67 30.2199 61.63 30.1999 61.58C30.1099 61.34 30.0299 60.98 29.9699 60.69C29.9099 60.38 29.8699 60.14 29.8699 60.14C29.8699 60.14 30.2899 58.76 31.0899 60.64C31.1499 60.77 31.1999 60.89 31.2599 61C31.9599 62.41 32.3799 61.78 32.6599 61.67C32.7699 61.63 32.8199 61.49 32.8099 61.3C32.7999 60.97 32.6499 60.49 32.5099 60.06C32.2799 59.37 32.8199 59.14 33.3199 59.41C33.8099 59.68 34.0799 61.1 34.0799 61.1C35.4999 61.36 34.7699 57.23 34.7699 57.23C34.7699 57.23 34.1599 55.85 33.5499 54.24C32.9299 52.63 34.3899 53.11 34.3899 53.11C37.3799 57.05 36.4999 60.41 36.4999 60.41L40.2099 60.52C40.2899 55.81 43.9999 53.39 44.5799 53.39C45.1599 53.39 45.3799 54.05 44.6399 54.81C43.8899 55.58 42.4699 58.15 42.4699 58.15C41.0499 61.29 42.7799 61.67 42.7799 61.67C42.7799 60.98 43.6999 59.95 43.6999 59.95C44.8099 59.91 44.2299 60.98 44.2299 60.98C44.0599 61.43 44.0299 61.77 44.0899 62.02C44.2499 62.72 45.0799 62.69 45.3099 62.44C45.3899 62.35 45.4799 62.2 45.5699 62.01C45.8499 61.51 46.1599 60.79 46.4199 60.56C46.7599 60.25 47.2199 60.94 47.2199 61.1C47.2199 61.2 47.0799 61.67 46.9799 61.99C46.9199 62.18 46.8799 62.32 46.8799 62.32C46.9599 62.5 47.3999 62.34 48.0199 61.97H48.0299C48.5999 61.63 49.3199 61.11 50.0199 60.52C51.4799 59.3 54.2699 55.46 54.2699 55.46C55.2699 55.66 54.9599 56.54 54.9599 56.54C54.3099 58.72 52.6599 60.64 51.7099 61.52C51.5999 61.62 51.4699 61.73 51.3299 61.85C51.3199 61.85 51.3199 61.86 51.3099 61.86C51.7499 61.86 54.4399 61.84 56.0199 61.63C56.4299 61.57 56.9699 61.57 57.5699 61.46C59.4699 61.14 61.9399 59.83 62.6799 52.84C63.6599 43.64 62.9699 32.55 62.1699 31.11C61.3599 29.68 63.1399 27.64 63.1399 27.64L63.1499 27.65ZM31.0499 27.27C30.3099 27.73 29.9099 27.65 29.9099 27.65C29.2399 26.93 29.9099 23.74 29.9099 23.74C30.0799 22.45 30.6799 22.42 30.6799 22.42C32.3199 22.73 33.5599 24.69 33.8999 25.35C34.2399 26.01 33.8399 26.04 33.6399 26.12C33.4399 26.21 31.7999 26.81 31.0499 27.27ZM34.1899 37.56C33.2899 37.56 32.5499 36.61 32.5499 35.44C32.5499 34.27 33.2899 33.32 34.1899 33.32C35.0899 33.32 35.8399 34.27 35.8399 35.44C35.8399 36.61 35.0999 37.56 34.1899 37.56ZM43.8599 41.33C43.4499 41.99 42.2299 42.68 41.1099 42.39C39.9899 42.1 39.3199 41.2 39.3199 41.2C38.1799 42.43 36.7299 42.32 35.9499 41.73C35.1799 41.14 34.9299 40.51 35.2199 40.07C35.5099 39.63 36.1099 40.05 36.1099 40.05C36.9199 41.32 37.5599 40.94 37.5599 40.94C38.4199 41.1 38.8699 39.61 38.9699 39.23C38.2299 39.06 37.6999 38.58 37.6999 38.01C37.6999 37.3 38.5499 36.72 39.5999 36.72C40.6499 36.72 41.4999 37.3 41.4999 38.01C41.4999 38.61 40.9199 39.11 40.1199 39.25V39.31C40.0899 40.05 40.5999 40.85 41.1999 41.15C41.7999 41.46 42.5499 40.87 42.6899 40.69C42.8399 40.52 43.3099 40.12 43.6699 40.16C44.0299 40.21 44.2599 40.66 43.8599 41.33ZM46.5199 38.05C45.6099 38.05 44.8799 37.1 44.8799 35.93C44.8799 34.76 45.6099 33.81 46.5199 33.81C47.4299 33.81 48.1699 34.76 48.1699 35.93C48.1699 37.1 47.4299 38.05 46.5199 38.05ZM50.8499 25.7C51.2399 25.06 52.6099 23.2 54.2699 23C54.2699 23 54.8699 23.08 54.9499 24.38C54.9499 24.38 55.3799 27.61 54.6699 28.28C54.6699 28.28 54.2599 28.33 53.5499 27.82C52.8399 27.31 51.2399 26.59 51.0499 26.49C50.8599 26.39 50.4599 26.33 50.8499 25.7Z" fill="#F6CE84"/>
<path d="M33.6401 26.12C33.4401 26.21 31.8001 26.81 31.0501 27.27C30.3101 27.73 29.9101 27.65 29.9101 27.65C29.2401 26.93 29.9101 23.74 29.9101 23.74C30.0801 22.45 30.6801 22.42 30.6801 22.42C32.3201 22.73 33.5601 24.69 33.9001 25.35C34.2401 26.01 33.8401 26.04 33.6401 26.12Z" fill="#F6CE84"/>
<path d="M35.84 35.44C35.84 36.61 35.1 37.56 34.19 37.56C33.28 37.56 32.55 36.61 32.55 35.44C32.55 34.27 33.29 33.32 34.19 33.32C35.09 33.32 35.84 34.27 35.84 35.44Z" fill="#F6CE84"/>
<path d="M40.9101 25.04C40.9101 25.04 40.3901 26.97 40.1101 27.83C39.8201 28.69 39.0501 29.46 38.7101 28.35C38.3601 27.24 38.9801 25.09 38.9801 25.09C38.9801 25.09 38.9868 25.0867 39.0001 25.08H39.0101C39.2501 24.98 39.9301 24.99 40.4001 25.01H40.5101C40.7401 25.03 40.9101 25.04 40.9101 25.04Z" fill="#F6CE84"/>
<path d="M43.86 41.33C43.45 41.99 42.23 42.68 41.11 42.39C39.99 42.1 39.32 41.2 39.32 41.2C38.18 42.43 36.73 42.32 35.95 41.73C35.18 41.14 34.93 40.51 35.22 40.07C35.51 39.63 36.11 40.05 36.11 40.05C36.92 41.32 37.56 40.94 37.56 40.94C38.42 41.1 38.87 39.61 38.97 39.23C38.23 39.06 37.7 38.58 37.7 38.01C37.7 37.3 38.55 36.72 39.6 36.72C40.65 36.72 41.5 37.3 41.5 38.01C41.5 38.61 40.92 39.11 40.12 39.25V39.31C40.09 40.05 40.6 40.85 41.2 41.15C41.8 41.46 42.55 40.87 42.69 40.69C42.84 40.52 43.31 40.12 43.67 40.16C44.03 40.21 44.26 40.66 43.86 41.33Z" fill="#F6CE84"/>
<path d="M44.5899 24.99C44.5899 24.99 44.5899 25.01 44.5799 25.07C44.5599 25.2 44.5299 25.52 44.4699 26.24C44.3999 27.25 43.9599 29.02 43.0999 28.9C42.2299 28.78 42.5999 27.24 42.5999 26.78C42.5999 26.32 42.8699 25.13 42.8999 25L44.5899 24.99Z" fill="#F6CE84"/>
<path d="M48.1699 35.93C48.1699 37.1 47.4299 38.05 46.5199 38.05C45.6099 38.05 44.8799 37.1 44.8799 35.93C44.8799 34.76 45.6099 33.81 46.5199 33.81C47.4299 33.81 48.1699 34.76 48.1699 35.93Z" fill="#F6CE84"/>
<path d="M54.6701 28.28C54.6701 28.28 54.2601 28.33 53.5501 27.82C52.8401 27.31 51.2401 26.59 51.0501 26.49C50.8601 26.39 50.4601 26.33 50.8501 25.7C51.2401 25.06 52.6101 23.2 54.2701 23C54.2701 23 54.8701 23.08 54.9501 24.38C54.9501 24.38 55.3801 27.61 54.6701 28.28Z" fill="#F6CE84"/>
<path d="M40.9101 25.04C40.9101 25.04 40.3901 26.97 40.1101 27.83C39.8201 28.69 39.0501 29.46 38.7101 28.35C38.3601 27.24 38.9801 25.09 38.9801 25.09C38.9801 25.09 38.9868 25.0867 39.0001 25.08H39.0101C39.2501 24.98 39.9301 24.99 40.4001 25.01H40.5101C40.7401 25.03 40.9101 25.04 40.9101 25.04Z" fill="#C1792A"/>
<path d="M44.5899 24.99C44.5899 24.99 44.5899 25.01 44.5799 25.07C44.5599 25.2 44.5299 25.52 44.4699 26.24C44.3999 27.25 43.9599 29.02 43.0999 28.9C42.2299 28.78 42.5999 27.24 42.5999 26.78C42.5999 26.32 42.8699 25.13 42.8999 25L44.5899 24.99Z" fill="#C1792A"/>
<path d="M81.49 48.19C81.14 46.3 80.97 44 77.12 43.71C73.27 43.42 72.58 48.71 72.58 48.71C73.33 36.87 71.49 29.63 71.49 29.63C74.3 26.01 75.28 21.76 72.98 18.71C70.68 15.66 68.34 13.71 62.02 11.83C58.04 10.65 52.36 9.89 46.14 10.02H45.76C45.58 10.02 45.4 10.02 45.22 10.03C40.69 10.13 36.97 10.68 34.02 11.4C33.79 11.45 33.58 11.5 33.36 11.56C30.87 12.16 28.82 12.93 27.14 13.82C27.09 13.84 27.05 13.86 27.01 13.88C25.57 14.61 24.88 15.15 24.88 15.15C24.43 15.52 24.02 15.89 23.66 16.25C23.49 16.41 23.34 16.57 23.19 16.72C23.03 16.9 22.88 17.07 22.73 17.24C22.47 17.55 22.24 17.86 22.03 18.16C21.94 18.29 21.85 18.42 21.78 18.55C21.69 18.7 21.61 18.85 21.53 18.99C21.46 19.12 21.39 19.25 21.33 19.38C20.04 21.88 20.28 24.16 20.93 25.91C21.03 26.18 21.14 26.44 21.25 26.69C21.46 27.18 21.71 27.61 21.95 27.97C21.95 27.97 21.9533 27.9733 21.96 27.98C22.11 28.23 22.27 28.44 22.4 28.62H22.41C22.55 28.81 22.67 28.96 22.77 29.08C22.92 29.25 23.01 29.34 23.01 29.34C22.86 29.65 22.78 32.02 22.73 34.7C22.67 34.87 22.61 35.04 22.56 35.21C22.56 35.21 22.55 35.25 22.53 35.32C22.25 35.26 21.98 35.21 21.73 35.19C20.59 35.07 19.42 34.75 18.82 35.28C18.23 35.82 18.42 36.6 19.36 36.81C20.3 37.02 21.14 36.91 22.04 37.12C22.11 37.13 22.18 37.15 22.25 37.17C22.2 37.86 22.2 38.69 22.31 39.57C21.95 39.63 21.59 39.71 21.27 39.8C20.16 40.12 18.95 40.26 18.6 40.98C18.25 41.7 18.73 42.36 19.68 42.2C20.62 42.04 21.36 41.62 22.28 41.48C22.4 41.46 22.54 41.43 22.69 41.4V41.58L22.52 44.52C22.49 45.2 22.46 45.82 22.45 46.41C22.45 46.56 22.44 46.71 22.43 46.85C22.41 47.48 22.38 48.05 22.37 48.57C22.37 48.78 22.36 48.99 22.36 49.19C22.36 49.78 22.36 50.31 22.37 50.79C22.37 50.93 22.38 51.07 22.38 51.21C22.39 51.35 22.4 51.48 22.4 51.61C22.43 51.99 22.46 52.34 22.5 52.66C22.54 53.01 22.59 53.29 22.65 53.54C22.77 54.09 22.94 54.56 23.15 55.03C23.25 55.26 23.35 55.5 23.44 55.73C23.45 55.73 23.45 55.74 23.45 55.75C23.83 56.94 24.21 58.5 24.33 58.97C24.35 59.06 24.36 59.11 24.36 59.11C24.36 59.11 21.95 59.4 21.95 61.24C21.95 63.08 28.44 63.31 28.44 63.31C28.44 63.31 28.63 63.37 28.94 63.45C29.12 63.5 29.35 63.55 29.6 63.61C29.78 63.65 29.98 63.68 30.19 63.72C31.34 63.94 32.28 63.97 33.01 63.88C33.18 63.87 33.35 63.85 33.52 63.81C33.63 63.79 33.73 63.78 33.83 63.74C34 63.7 34.15 63.65 34.28 63.61C34.35 63.6 34.42 63.57 34.49 63.54H34.5C34.61 63.5 34.71 63.45 34.81 63.39C34.86 63.37 34.91 63.34 34.96 63.31C35.06 63.25 35.15 63.19 35.23 63.14L41.23 63.4C41.23 63.4 41.29 63.41 41.32 63.41C41.42 63.42 41.52 63.43 41.62 63.43C41.68 63.47 41.75 63.52 41.82 63.57C41.89 63.62 41.98 63.67 42.06 63.72C42.15 63.77 42.25 63.83 42.36 63.89C42.53 63.98 42.72 64.07 42.94 64.16C43.05 64.2 43.17 64.25 43.3 64.28C43.42 64.32 43.54 64.35 43.66 64.38C43.75 64.41 43.84 64.43 43.93 64.45C44.14 64.49 44.36 64.52 44.59 64.54C44.74 64.56 44.89 64.56 45.05 64.56H45.42C45.58 64.56 45.75 64.55 45.93 64.53C46.09 64.51 46.26 64.49 46.44 64.46C46.6 64.43 46.77 64.4 46.94 64.36C47.46 64.24 48.02 64.07 48.61 63.83H48.64C50.76 63.83 52.74 63.79 54.55 63.68C66.04 63.36 67.75 61.3 67.75 61.3C79.07 60.9 81.83 50.09 81.49 48.19ZM24.24 51.14V51.12C24.24 51.12 24.11 47.7 24.4 44.27C24.49 44.38 24.59 44.48 24.7 44.59L26.81 46.51C26.81 46.51 24.99 49.58 24.24 51.14ZM64.71 48.77C64.71 48.77 64.71 53.08 64.3 55.55C63.9 58.01 63.5 62.01 57.58 61.47C56.98 61.58 56.44 61.58 56.03 61.64C54.45 61.85 51.76 61.87 51.32 61.87C51.33 61.87 51.33 61.86 51.34 61.86C51.48 61.74 51.61 61.63 51.72 61.53C52.67 60.65 54.32 58.73 54.97 56.55C54.97 56.55 55.28 55.67 54.28 55.47C54.28 55.47 51.49 59.31 50.03 60.53C49.33 61.12 48.61 61.64 48.04 61.98H48.03C47.41 62.35 46.97 62.51 46.89 62.33C46.89 62.33 46.93 62.19 46.99 62C47.09 61.68 47.23 61.21 47.23 61.11C47.23 60.95 46.77 60.26 46.43 60.57C46.17 60.8 45.86 61.52 45.58 62.02C45.49 62.21 45.4 62.36 45.32 62.45C45.09 62.7 44.26 62.73 44.1 62.03C44.04 61.78 44.07 61.44 44.24 60.99C44.24 60.99 44.82 59.92 43.71 59.96C43.71 59.96 42.79 60.99 42.79 61.68C42.79 61.68 41.06 61.3 42.48 58.16C42.48 58.16 43.9 55.59 44.65 54.82C45.39 54.06 45.16 53.4 44.59 53.4C44.02 53.4 40.3 55.82 40.22 60.53L36.51 60.42C36.51 60.42 37.39 57.06 34.4 53.12C34.4 53.12 32.94 52.64 33.56 54.25C34.17 55.86 34.78 57.24 34.78 57.24C34.78 57.24 35.51 61.37 34.09 61.11C34.09 61.11 33.82 59.69 33.33 59.42C32.83 59.15 32.29 59.38 32.52 60.07C32.66 60.5 32.81 60.98 32.82 61.31C32.83 61.5 32.78 61.64 32.67 61.68C32.39 61.79 31.97 62.42 31.27 61.01C31.21 60.9 31.16 60.78 31.1 60.65C30.3 58.77 29.88 60.15 29.88 60.15C29.88 60.15 29.92 60.39 29.98 60.7C30.04 60.99 30.12 61.35 30.21 61.59C30.23 61.64 30.24 61.68 30.26 61.72C30.26 61.72 29.38 61.7 28.38 61.04C27.93 60.75 27.47 60.33 27.04 59.73C26.68 59.22 26.32 58.58 26.05 57.81C25.28 55.58 25.26 52.23 28.32 47.5C28.32 47.5 30.04 47.96 29.66 46.2C29.66 46.2 26.47 44.71 24.74 41.57C24.65 41.41 24.56 41.24 24.48 41.07C24.47 41.05 24.46 41.04 24.46 41.02C24.61 40.99 24.74 40.97 24.85 40.96C25 40.94 25.11 40.93 25.17 40.96C25.5 41.05 26.44 41.13 26.58 40.39C26.71 39.66 26.2 39.57 26 39.47C25.9 39.42 25.48 39.39 25.06 39.38C24.61 39.36 24.17 39.36 24.17 39.36C24.17 39.36 24.1 39.36 23.98 39.37C23.89 38.75 23.89 38.12 23.97 37.47C24.44 37.55 24.82 37.63 24.93 37.72C24.98 37.76 25.06 37.82 25.16 37.87C25.52 38.07 26.12 38.23 26.44 37.72C26.84 37.09 26.4 36.82 26.25 36.65C26.16 36.55 25.62 36.31 25.19 36.12C24.87 35.98 24.6 35.87 24.6 35.87C24.6 35.87 24.5 35.84 24.32 35.78C24.53 35.08 24.81 34.38 25.15 33.7C25.82 32.34 26.71 31.08 27.66 30.04C27.66 30.04 27.51 22.03 29.93 20.39C29.93 20.39 32.8 20.23 36.9 25.25C36.9 25.25 37.75 25.16 39.01 25.09H39.02C39.44 25.07 39.9 25.04 40.41 25.02H40.52C41.27 25 42.08 24.99 42.91 25.01C43.47 25.02 44.04 25.04 44.59 25.08C45.62 25.15 46.61 25.27 47.44 25.48C47.44 25.48 52.85 20.69 55.03 20.66C55.03 20.66 55.94 19.89 56.71 23.95C57.47 28.01 56.71 30.35 56.71 30.35C56.71 30.35 59.43 33.63 59.93 37.3C59.93 37.3 54.71 37.25 54.03 37.78C53.34 38.32 52.99 38.85 54.33 39.24C54.33 39.24 58.62 38.47 59.93 38.93C59.93 38.93 59.58 42.13 58.89 42.48C58.2 42.84 56.9 40.96 54.06 40.81C54.06 40.81 52.42 41.44 54.33 42.48C54.33 42.48 57.24 43.26 57.89 43.87C57.89 43.87 56.25 45.75 55.25 46.02C54.26 46.29 54.18 47.67 55.33 47.44C56.48 47.21 58.09 46.1 58.43 45.67C58.78 45.25 62.38 43.3 61.65 36.67C61.65 36.67 60.53 32.18 58.78 30.2C58.78 30.2 59.7 22.69 56.86 19.43C56.86 19.43 54.56 16.59 47.05 23.49C47.05 23.49 41.3 22.53 37.86 23.49C37.86 23.49 33.95 18.28 29.47 18.47C29.47 18.47 27.2 18.74 26.44 23.64C26.14 25.53 25.98 26.81 25.89 27.66C25.74 29.02 25.79 29.31 25.79 29.31C25.79 29.31 25.45 29.75 24.96 30.46C24.89 29.5 24.83 28.89 24.83 28.89C24.83 28.89 20.35 24.53 23.22 19.93C26.09 15.33 30.69 13.95 38.16 12.57C45.63 11.19 57.76 11.94 62.82 16.31C67.88 20.67 68.11 24.58 64.43 29.7C64.43 29.7 64.08 30.21 64.66 32.17C65.23 34.12 64.72 48.78 64.72 48.78L64.71 48.77ZM65 60.02C65 60.02 65.03 59.97 65.07 59.88C65.09 59.84 65.11 59.77 65.14 59.72C65.16 59.66 65.19 59.59 65.22 59.52C65.24 59.48 65.25 59.43 65.27 59.37C65.29 59.32 65.3 59.27 65.32 59.22C65.43 58.86 65.55 58.35 65.69 57.66C65.71 57.56 65.73 57.45 65.75 57.34C65.77 57.23 65.79 57.11 65.81 56.99C65.85 56.77 65.89 56.52 65.93 56.26C65.95 56.11 65.97 55.96 65.99 55.8C66.03 55.51 66.07 55.19 66.11 54.86C66.11 54.84 66.11 54.82 66.12 54.8C66.15 54.49 66.19 54.15 66.22 53.8C66.22 53.71 66.24 53.62 66.25 53.52C66.26 53.42 66.27 53.32 66.27 53.22C66.28 53.16 66.28 53.1 66.29 53.03C66.29 52.92 66.31 52.8 66.32 52.69C66.33 52.52 66.35 52.36 66.36 52.18C66.38 51.89 66.4 51.59 66.42 51.28C66.43 51.05 66.45 50.81 66.46 50.57C66.48 50.35 66.49 50.13 66.5 49.9V49.81C66.51 49.58 66.52 49.34 66.54 49.1V49.01C66.54 48.73 66.56 48.45 66.57 48.16C66.58 47.89 66.59 47.61 66.6 47.32C66.6 46.88 66.63 46.42 66.64 45.94C66.64 45.7 66.65 45.46 66.65 45.21C66.65 44.96 66.66 44.72 66.66 44.46C66.66 44.08 66.66 43.72 66.66 43.36C66.67 43 66.67 42.65 66.67 42.31C66.68 41.66 66.68 41.01 66.68 40.39C66.68 39.69 66.67 39.04 66.67 38.43C66.67 38.2 66.66 37.97 66.66 37.75C66.66 37.53 66.66 37.32 66.66 37.11C66.66 36.86 66.65 36.63 66.65 36.4C66.64 36.04 66.63 35.7 66.62 35.38C66.61 34.96 66.59 34.58 66.58 34.23C66.57 34.09 66.57 33.96 66.56 33.83C66.54 33.38 66.51 32.98 66.49 32.63C66.45 32.28 66.43 31.98 66.41 31.72C66.4 31.61 66.39 31.5 66.38 31.41C66.26 30.3 66.14 30.15 66.14 30.15C66.14 30.15 66.55 29.95 67.15 29.03C67.19 28.96 67.23 28.9 67.27 28.83C67.31 28.77 67.34 28.72 67.37 28.66C67.45 28.53 67.52 28.4 67.59 28.25C67.64 28.16 67.69 28.08 67.72 27.99C67.79 27.87 67.85 27.73 67.91 27.59C68.06 27.26 68.22 26.88 68.36 26.47C68.45 26.25 68.53 26.02 68.61 25.78C69.01 24.59 69.07 23.19 68.78 21.74C68.76 21.6 68.72 21.46 68.68 21.31C68.64 21.11 68.58 20.91 68.52 20.7C68.35 20.17 68.14 19.64 67.88 19.11C67.79 18.94 67.7 18.76 67.6 18.59C67.57 18.53 67.54 18.47 67.49 18.42C67.39 18.25 67.29 18.08 67.17 17.92C65.99 16.11 64.19 14.51 61.74 13.51C61.74 13.51 65.32 13.88 69.49 17.5C73.67 21.12 72.85 25.36 69.49 28.91C69.49 29 69.5 30.71 70.22 32.56C70.97 34.46 70.97 43.65 70.97 44.29C70.97 44.29 70.92 53.77 68.9 56.58C66.95 59.31 65.11 59.99 65 60.02ZM69.32 59.38C69.32 59.38 71.37 58.04 71.72 53.63C71.72 53.63 73.02 53.1 74.25 49.42C74.25 49.42 74.4 47.2 75.43 46.2C76.47 45.21 79.03 44.48 79.61 47.77C80.18 51.07 76.85 57.58 69.32 59.38Z" fill="#543110"/>
<path d="M35.84 35.44C35.84 36.61 35.1 37.56 34.19 37.56C33.28 37.56 32.55 36.61 32.55 35.44C32.55 34.27 33.29 33.32 34.19 33.32C35.09 33.32 35.84 34.27 35.84 35.44Z" fill="#543110"/>
<path d="M48.1699 35.93C48.1699 37.1 47.4299 38.05 46.5199 38.05C45.6099 38.05 44.8799 37.1 44.8799 35.93C44.8799 34.76 45.6099 33.81 46.5199 33.81C47.4299 33.81 48.1699 34.76 48.1699 35.93Z" fill="#543110"/>
<path d="M43.67 40.16C43.31 40.12 42.84 40.52 42.69 40.69C42.55 40.87 41.8 41.46 41.2 41.15C40.6 40.85 40.09 40.05 40.12 39.31V39.25C40.92 39.11 41.5 38.61 41.5 38.01C41.5 37.3 40.65 36.72 39.6 36.72C38.55 36.72 37.7 37.3 37.7 38.01C37.7 38.58 38.23 39.06 38.97 39.23C38.87 39.61 38.42 41.1 37.56 40.94C37.56 40.94 36.92 41.32 36.11 40.05C36.11 40.05 35.51 39.63 35.22 40.07C34.93 40.51 35.18 41.14 35.95 41.73C36.73 42.32 38.18 42.43 39.32 41.2C39.32 41.2 39.99 42.1 41.11 42.39C42.23 42.68 43.45 41.99 43.86 41.33C44.26 40.66 44.03 40.21 43.67 40.16Z" fill="#543110"/>
<path d="M33.6401 26.12C33.4401 26.21 31.8001 26.81 31.0501 27.27C30.3101 27.73 29.9101 27.65 29.9101 27.65C29.2401 26.93 29.9101 23.74 29.9101 23.74C30.0801 22.45 30.6801 22.42 30.6801 22.42C32.3201 22.73 33.5601 24.69 33.9001 25.35C34.2401 26.01 33.8401 26.04 33.6401 26.12Z" fill="#C1792A"/>
<path d="M54.6701 28.28C54.6701 28.28 54.2601 28.33 53.5501 27.82C52.8401 27.31 51.2401 26.59 51.0501 26.49C50.8601 26.39 50.4601 26.33 50.8501 25.7C51.2401 25.06 52.6101 23.2 54.2701 23C54.2701 23 54.8701 23.08 54.9501 24.38C54.9501 24.38 55.3801 27.61 54.6701 28.28Z" fill="#C1792A"/>
<path d="M70.22 32.56C70.97 34.46 70.97 43.65 70.97 44.29C70.97 44.29 70.92 53.77 68.9 56.58C66.95 59.31 65.11 59.99 65 60.02C65 60.02 65.03 59.97 65.07 59.88C65.09 59.84 65.11 59.77 65.14 59.72C65.16 59.66 65.19 59.59 65.22 59.52C65.24 59.48 65.25 59.43 65.27 59.37C65.29 59.32 65.3 59.27 65.32 59.22C65.43 58.86 65.55 58.35 65.69 57.66C65.71 57.56 65.73 57.45 65.75 57.34C65.77 57.23 65.79 57.11 65.81 56.99C65.85 56.77 65.89 56.52 65.93 56.26C65.95 56.11 65.97 55.96 65.99 55.8C66.03 55.51 66.07 55.19 66.11 54.86C66.11 54.84 66.11 54.82 66.12 54.8C66.15 54.49 66.19 54.15 66.22 53.8C66.22 53.71 66.24 53.62 66.25 53.52C66.26 53.42 66.27 53.32 66.27 53.22C66.28 53.16 66.28 53.1 66.29 53.03C66.29 52.92 66.31 52.8 66.32 52.69C66.33 52.52 66.35 52.36 66.36 52.18C66.38 51.89 66.4 51.59 66.42 51.28C66.43 51.05 66.45 50.81 66.46 50.57C66.48 50.35 66.49 50.13 66.5 49.9V49.81C66.51 49.58 66.52 49.34 66.54 49.1V49.01C66.54 48.73 66.56 48.45 66.57 48.16C66.58 47.89 66.59 47.61 66.6 47.32C66.6 46.88 66.63 46.42 66.64 45.94C66.64 45.7 66.65 45.46 66.65 45.21C66.65 44.96 66.66 44.72 66.66 44.46C66.66 44.08 66.66 43.72 66.66 43.36C66.67 43 66.67 42.65 66.67 42.31C66.68 41.66 66.68 41.01 66.68 40.39C66.68 39.69 66.67 39.04 66.67 38.43C66.67 38.2 66.66 37.97 66.66 37.75C66.66 37.53 66.66 37.32 66.66 37.11C66.66 36.86 66.65 36.63 66.65 36.4C66.64 36.04 66.63 35.7 66.62 35.38C66.61 34.96 66.59 34.58 66.58 34.23C66.57 34.09 66.57 33.96 66.56 33.83C66.54 33.38 66.51 32.98 66.49 32.63C66.47 32.28 66.44 31.98 66.41 31.72C66.4 31.61 66.39 31.5 66.38 31.41C66.26 30.3 66.14 30.15 66.14 30.15C66.14 30.15 66.55 29.95 67.15 29.03C67.19 28.96 67.23 28.9 67.27 28.83C67.31 28.77 67.34 28.72 67.37 28.66C67.45 28.53 67.52 28.4 67.59 28.25C67.64 28.16 67.69 28.08 67.72 27.99C67.79 27.87 67.85 27.73 67.91 27.59C68.06 27.26 68.22 26.88 68.36 26.47C68.45 26.25 68.53 26.02 68.61 25.78C69.01 24.59 69.07 23.19 68.78 21.74C68.76 21.6 68.72 21.46 68.68 21.31C68.64 21.11 68.58 20.91 68.52 20.7C68.35 20.17 68.14 19.64 67.88 19.11C67.79 18.94 67.7 18.76 67.6 18.59C67.57 18.53 67.54 18.47 67.49 18.42C67.39 18.25 67.29 18.08 67.17 17.92C65.99 16.11 64.19 14.51 61.74 13.51C61.74 13.51 65.32 13.88 69.49 17.5C73.67 21.12 72.85 25.36 69.49 28.91C69.49 29 69.5 30.71 70.22 32.56Z" fill="#A25E15"/>
<path d="M68.8001 41.52C69.1812 41.52 69.4901 41.1573 69.4901 40.71C69.4901 40.2626 69.1812 39.9 68.8001 39.9C68.419 39.9 68.1101 40.2626 68.1101 40.71C68.1101 41.1573 68.419 41.52 68.8001 41.52Z" fill="#6F3E13"/>
<path d="M68.7201 48.23C69.0515 48.23 69.3201 47.836 69.3201 47.35C69.3201 46.864 69.0515 46.47 68.7201 46.47C68.3887 46.47 68.1201 46.864 68.1201 47.35C68.1201 47.836 68.3887 48.23 68.7201 48.23Z" fill="#6F3E13"/>
<path d="M69.3201 59.38C69.3201 59.38 71.3701 58.04 71.7201 53.63C71.7201 53.63 73.0201 53.1 74.2501 49.42C74.2501 49.42 74.4001 47.2 75.4301 46.2C76.4701 45.21 79.0301 44.48 79.6101 47.77C80.1801 51.07 76.8501 57.58 69.3201 59.38Z" fill="#C57C2B"/>
<path d="M27.78 72.99L29.61 72.97L29.63 72.23C29.63 71.54 29.38 69.48 30.98 69.48C31.31 69.48 31.67 69.58 31.92 69.76C32.73 70.29 32.61 71.41 32.66 72.69L32.63 76.41C32.63 77.28 32.68 78.5 32.12 79.52C32.02 79.75 31.74 80.05 31.64 80.16C31.13 80.67 29.93 80.69 29.71 80.72L22.71 80.74C21.9 80.74 21.16 80.66 20.55 80.18C19.66 79.52 19.74 77.92 19.76 77.66V71.98C19.76 71.01 20.12 69.54 21.31 69.54C22.18 69.54 22.46 69.9 22.71 70.63C22.86 71.09 22.89 71.6 22.91 72.06V72.11L22.89 73.03H24.82V72.01C24.82 71.96 24.79 70.69 25.35 70.13C25.58 69.9 25.88 69.77 26.27 69.77C26.66 69.77 26.98 69.92 27.21 70.15C27.67 70.63 27.77 71.17 27.77 72.31V73L27.78 72.99ZM29.51 82.11C34.2 82.11 38.01 82.59 38.01 86.03C38.01 89.47 34.19 89.95 29.51 89.95C24.83 89.95 21.01 89.42 21.01 86.03C21.01 82.95 24.83 82.11 29.51 82.11ZM22.79 77.76H24.83V76.05H22.79C22.84 76.61 22.79 77.27 22.79 77.76ZM29.51 84.76C27.14 84.76 24.6 84.86 24.6 86.03C24.6 87.07 27.15 87.28 29.51 87.28C31.87 87.28 34.58 87.41 34.58 86.03C34.58 84.86 31.88 84.76 29.51 84.76ZM27.75 76.03C27.75 76.64 27.73 77.23 27.73 77.74H29.69L29.67 76.03H27.76H27.75ZM37.55 77.13V79.45C37.52 79.81 37.47 80.21 37.27 80.6C37.17 80.8 37.01 80.98 36.84 81.11C36.59 81.29 36.28 81.37 36 81.37C35.74 81.37 35.49 81.32 35.29 81.19C34.6 80.78 34.5 79.84 34.5 79.81V71.41C34.48 71.28 34.52 70.49 34.73 70.09C34.88 69.76 35.26 69.53 35.75 69.48C36.34 69.4 36.87 69.56 37.15 69.86C37.35 70.11 37.41 70.37 37.48 70.65C37.58 70.98 37.58 71.39 37.56 71.75V73.51C37.56 73.51 37.53 73.84 37.56 74.32C37.84 74.35 39.21 74.37 39.52 74.45C40.18 74.58 40.41 74.86 40.49 75.21C40.59 75.57 40.62 76.15 40.41 76.48C40 77.14 39.14 77.12 38.15 77.14H37.56L37.55 77.13Z" fill="#543110"/>
<path d="M44.3201 80.2C43.3001 80.2 42.7201 80.05 42.2101 79.36C41.9001 78.95 41.7301 78.44 41.7301 77.93C41.7301 76.48 41.6501 74.77 41.7301 73.32C41.7501 72.43 41.6301 71.41 42.0601 70.62C42.5701 69.73 43.9901 69.45 44.5501 70.37C45.1601 71.39 44.9801 72.56 44.9801 73.73C44.9801 74.54 44.9801 75.77 45.0801 76.61C45.1601 77.4 45.7701 77.27 46.4001 77.3L51.7701 77.45C52.6601 77.47 52.8701 78.57 52.7401 79.18C52.6401 79.95 51.8701 80.2 50.9601 80.2H44.3101H44.3201ZM51.0701 82.06C55.7601 82.06 59.5801 82.54 59.5801 85.98C59.5801 89.42 55.7601 89.9 51.0701 89.9C46.3801 89.9 42.5701 89.36 42.5701 85.98C42.5701 82.9 46.3901 82.06 51.0701 82.06ZM51.0701 84.71C48.7001 84.71 46.1601 84.81 46.1601 85.98C46.1601 87.02 48.7101 87.23 51.0701 87.23C53.4301 87.23 56.1401 87.36 56.1401 85.98C56.1401 84.81 53.4401 84.71 51.0701 84.71ZM58.8601 72.01C59.1401 72.03 60.5201 72.06 60.8201 72.14C61.4801 72.27 61.7101 72.55 61.7901 72.9C61.8901 73.26 61.9201 73.84 61.7101 74.17C61.3001 74.83 60.4401 74.81 59.4401 74.83H58.8501V76.38H60.7601C61.4201 76.51 61.6501 76.79 61.7301 77.14C61.8301 77.5 61.9101 78.08 61.7001 78.41C61.2901 79.07 60.4001 79.07 59.4101 79.1H58.8501V79.69C58.8301 80.05 58.7701 80.45 58.5701 80.84C58.4701 81.04 58.3101 81.22 58.1401 81.35C57.8901 81.53 57.5801 81.6 57.3001 81.6C57.0401 81.6 56.7901 81.55 56.5901 81.42C55.9001 81.01 55.8001 80.07 55.8001 80.04V71.38C55.7701 71.25 55.8201 70.46 56.0301 70.06C56.1801 69.73 56.5601 69.5 57.0501 69.45C57.6401 69.37 58.1701 69.53 58.4501 69.83C58.6501 70.08 58.7101 70.21 58.7801 70.49C58.8801 70.82 58.8801 70.92 58.8601 71.36V72V72.01Z" fill="#543110"/>
<path d="M69.1199 69.53C69.7599 69.63 70.3399 69.94 70.8299 70.42C72.4799 72.15 72.8399 75.13 72.9399 77.55C73.0199 79.1 72.9899 80.68 72.8099 82.21C72.6299 83.79 72.3999 85.49 71.5599 86.79C70.8499 87.89 69.7299 88.6 68.5799 88.83C67.5399 89.03 66.3899 88.91 65.4199 88.35C64.4999 87.82 63.8899 86.97 63.4299 85.91C63.0999 85.12 62.8999 84.25 62.8399 83.39C62.7099 81.96 62.6599 80.54 62.6599 79.11C62.6599 78.14 62.7099 77.2 62.8099 76.26C62.8599 75.5 62.9399 74.71 63.0699 73.97C63.1999 73.36 63.2699 72.82 63.5299 72.26C63.7799 71.7 64.1199 71.17 64.5499 70.76C65.2899 70.02 66.2599 69.61 67.2199 69.49C67.4199 69.46 67.6499 69.46 67.8599 69.44C68.2899 69.44 68.6999 69.49 69.1099 69.54L69.1199 69.53ZM68.7399 85.14C69.2999 84.73 69.4999 84.02 69.6599 83.21C69.9399 81.66 69.9099 79.77 69.8599 78.17C69.8399 76.87 69.8099 75.19 69.1999 74.15C68.8699 73.59 68.3599 73.23 67.8199 73.31C67.2599 73.36 66.7499 73.72 66.4499 74.38L66.2199 74.91C66.0199 75.55 65.9099 76.26 65.8599 76.95C65.8099 77.64 65.7599 78.35 65.7599 79.04C65.7799 79.73 65.7099 80.36 65.7599 81.03C65.8899 82.79 66.1199 85.44 67.7999 85.46C68.1099 85.46 68.4399 85.36 68.7399 85.15V85.14ZM80.0199 88.86C79.9699 88.99 79.9199 89.09 79.8699 89.22C79.7699 89.42 79.6199 89.63 79.4099 89.78C79.0299 90.01 78.5399 90.06 78.1099 89.96C77.8599 89.91 77.6299 89.81 77.4499 89.65C76.8399 89.09 76.8599 87.77 76.8599 87.72V72.32C76.8299 71.53 76.8599 70.26 77.3399 69.8C77.6999 69.44 78.1299 69.39 78.5899 69.39C79.1799 69.39 79.7099 69.75 79.9099 70.31C80.2199 71.02 80.1899 71.81 80.2199 72.6V72.73C80.2999 75.33 80.2199 78.2 80.2199 80.65V86.76C80.2199 87.07 80.2499 87.37 80.2199 87.68C80.1699 88.09 80.1399 88.47 80.0199 88.88V88.86Z" fill="#543110"/>
</g>
<defs>
<clipPath id="clip0_517_2544">
<rect width="100" height="100" fill="white"/>
</clipPath>
</defs>
</svg>
